<?xml version="1.0" standalone="no"?>
<!DOCTYPE svg PUBLIC "-//W3C//DTD SVG 20010904//EN"
 "http://www.w3.org/TR/2001/REC-SVG-20010904/DTD/svg10.dtd">
<svg version="1.0" xmlns="http://www.w3.org/2000/svg"
 width="96.000000pt" height="96.000000pt" viewBox="0 0 96.000000 96.000000"
 preserveAspectRatio="xMidYMid meet">

<g transform="translate(0.000000,96.000000) scale(0.100000,-0.100000)"
fill="#000000" stroke="none">
<path d="M264 951 c-49 -21 -144 -147 -144 -191 0 -24 20 -6 48 43 39 68 103
127 140 127 16 0 43 -11 62 -25 29 -22 45 -25 110 -25 65 0 81 3 110 25 19 14
45 25 58 25 85 0 191 -164 192 -298 0 -90 -51 -161 -147 -204 -71 -31 -49 -53
23 -23 34 14 35 13 44 -9 5 -13 13 -27 19 -30 17 -11 21 10 9 42 -11 29 -10
34 19 64 43 44 63 96 63 160 -1 113 -87 275 -165 313 -45 21 -94 15 -132 -14
-37 -30 -143 -30 -184 0 -34 24 -94 33 -125 20z"/>
<path d="M287 878 c-21 -11 -22 -57 -2 -64 21 -8 45 14 45 41 0 27 -19 37 -43
23z"/>
<path d="M640 875 c-15 -19 -9 -45 13 -59 15 -9 21 -7 32 8 24 33 -19 82 -45
51z"/>
<path d="M400 797 c0 -36 30 -57 82 -57 50 0 78 21 78 58 0 30 -18 28 -30 -3
-8 -21 -16 -25 -50 -25 -34 0 -42 4 -50 25 -12 32 -30 32 -30 2z"/>
<path d="M96 689 c-17 -84 0 -151 52 -210 l39 -43 -19 -48 c-22 -58 -22 -68
-4 -68 8 0 17 11 20 25 3 13 10 35 16 49 9 25 10 25 44 11 20 -8 42 -15 51
-15 29 0 14 21 -29 39 -104 45 -154 125 -143 231 5 47 4 60 -7 60 -7 0 -16
-14 -20 -31z"/>
<path d="M789 333 c0 -5 0 -26 0 -48 3 -69 -43 -120 -122 -139 -26 -6 -27 -5
-21 21 4 16 11 38 15 51 13 35 11 62 -5 62 -8 0 -17 -15 -21 -37 -4 -21 -18
-67 -32 -102 -24 -59 -24 -65 -8 -73 16 -9 15 -11 -2 -23 -10 -7 -31 -11 -45
-8 -23 4 -25 8 -16 27 13 30 -2 178 -19 184 -10 3 -13 -13 -13 -57 0 -55 -2
-61 -21 -61 -19 0 -20 5 -18 58 2 44 0 57 -12 57 -18 0 -35 -163 -19 -179 16
-16 12 -23 -17 -29 -15 -3 -36 1 -46 8 -18 12 -18 14 -1 23 16 9 16 12 -3 58
-11 27 -26 73 -34 102 -7 29 -18 52 -26 52 -16 0 -16 -12 2 -80 8 -30 13 -55
12 -57 -2 -1 -21 2 -42 8 -50 14 -92 57 -100 103 -10 50 -31 40 -27 -13 2 -35
0 -41 -17 -41 -33 0 -71 -22 -71 -41 0 -10 13 -25 29 -34 17 -8 31 -25 33 -37
2 -18 11 -24 35 -26 17 -2 37 -10 43 -18 21 -24 45 -16 79 26 32 40 61 52 61
27 0 -8 -9 -22 -20 -32 -11 -10 -20 -24 -20 -30 0 -15 28 -28 41 -19 6 3 15 1
22 -4 13 -10 88 -9 106 2 8 5 6 18 -4 43 -19 45 -20 43 16 43 26 0 30 -3 23
-17 -4 -10 -8 -31 -8 -46 -1 -27 2 -29 47 -32 26 -1 50 1 53 6 3 5 16 6 30 3
34 -9 43 20 15 50 -11 12 -21 28 -21 34 0 24 29 11 63 -28 36 -43 57 -49 77
-25 7 8 26 15 42 15 24 0 32 6 41 29 6 16 22 34 35 40 16 8 22 18 20 34 -2 17
-13 24 -46 31 l-43 10 7 43 c7 47 -1 93 -16 93 -6 0 -10 -3 -11 -7z m-600
-172 c14 -10 41 -25 58 -33 l32 -13 -26 -29 c-22 -26 -26 -28 -35 -13 -5 10
-21 17 -39 17 -22 0 -32 6 -39 25 -5 14 -20 29 -32 34 -22 8 -21 9 12 19 19 6
37 11 38 11 2 1 16 -8 31 -18z m671 3 c10 -4 7 -8 -10 -17 -14 -7 -26 -23 -28
-35 -3 -18 -10 -22 -38 -22 -22 0 -37 -6 -40 -15 -9 -22 -18 -19 -37 14 l-16
28 39 18 c22 10 45 24 51 31 10 13 34 12 79 -2z"/>
</g>
</svg>
