<svg width="282" height="316" viewBox="0 0 282 316" fill="none" xmlns="http://www.w3.org/2000/svg">
<path d="M211 35H246C255.283 35 264.185 38.2778 270.749 44.1122C277.313 49.9467 281 57.8599 281 66.1111V283.889C281 292.14 277.313 300.053 270.749 305.888C264.185 311.722 255.283 315 246 315H36C26.7174 315 17.815 311.722 11.2513 305.888C4.68749 300.053 1 292.14 1 283.889V66.1111C1 57.8599 4.68749 49.9467 11.2513 44.1122C17.815 38.2778 26.7174 35 36 35H71" stroke="#5C5C5C" stroke-width="2" stroke-linecap="round" stroke-linejoin="round"/>
<path d="M191.875 1H89.125C79.6671 1 72 8.61116 72 18V52C72 61.3888 79.6671 69 89.125 69H191.875C201.333 69 209 61.3888 209 52V18C209 8.61116 201.333 1 191.875 1Z" stroke="#5C5C5C" stroke-width="2" stroke-linecap="round" stroke-linejoin="round"/>
</svg>
